# xmcd CD database file generated by OrangeCD 6.2
#
# Track frame offsets:
#	150
#	28829
#	60088
#	83732
#	148421
#	175474
#	211093
#	225513
#
# Disc length: 3292 seconds
#
# Revision: 2
# Processed by: cddbd v1.5.2PL0 Copyright (c) Steve Scherf et al.
# Submitted via: OrangeCD 6.2
#
DISCID=650cda08
DTITLE=Oliver Shanti and Friends - Buddha and Bonsai Vol.5
DYEAR=2005
DGENRE=New Age
TTITLE0=Wheel Of Balance
TTITLE1=Memories Of Buddha's Love
TTITLE2=Blossoms In The Wins
TTITLE3=Infinite Compassion
TTITLE4=Mystic Passage
TTITLE5=Dew Drops Of Light
TTITLE6=Expectations
TTITLE7=After The Rain
EXTD=
EXTT0=
EXTT1=
EXTT2=
EXTT3=
EXTT4=
EXTT5=
EXTT6=
EXTT7=
PLAYORDER=
